<svg width="38" height="40" fill="none" xmlns="http://www.w3.org/2000/svg"><path d="M37.416 8.826 19.255.058a.586.586 0 0 0-.51 0L.584 8.826a.586.586 0 0 0-.331.527v21.293c0 .225.128.43.33.528l18.162 8.768a.587.587 0 0 0 .51 0l18.161-8.768a.586.586 0 0 0 .332-.528V9.354a.586.586 0 0 0-.332-.528ZM19 1.236l16.814 8.117-4.874 2.354a.573.573 0 0 0-.1-.063L14.142 3.582 19 1.237Zm-6.182 3.009 16.79 8.105-3.44 1.66L9.386 5.908l3.432-1.663ZM30 13.46v6.137l-3.212 1.55v-6.136L30 13.462Zm6.576 16.818-16.99 8.201V18.49l4.053-1.957a.586.586 0 0 0-.51-1.055L19 17.471l-1.625-.785a.586.586 0 1 0-.51 1.055l1.55.748V38.48L1.424 30.28V10.287l12.937 6.246a.583.583 0 0 0 .782-.273.586.586 0 0 0-.273-.783L2.186 9.353l5.82-2.81 17.602 8.498.008.01v7.031a.586.586 0 0 0 .84.528l4.385-2.117a.586.586 0 0 0 .33-.527v-7.07l5.405-2.609V30.28Z" fill="#FFB800"/></svg>