<svg width="40" height="34" fill="none" xmlns="http://www.w3.org/2000/svg"><path d="M34.735.926H10.703A5.271 5.271 0 0 0 5.438 6.19v.711h-.173A5.271 5.271 0 0 0 0 12.167V27.81a5.271 5.271 0 0 0 5.265 5.265h24.032a5.271 5.271 0 0 0 5.265-5.265v-.711h.173A5.271 5.271 0 0 0 40 21.833V6.19A5.271 5.271 0 0 0 34.735.926Zm-2.517 26.883c0 1.611-1.31 2.921-2.921 2.921H5.265a2.925 2.925 0 0 1-2.921-2.92v-6.962h29.874v6.961Zm0-9.305H2.344v-3.281h29.874v3.28Zm0-5.625H2.344v-.712c0-1.61 1.31-2.92 2.921-2.92h24.032c1.61 0 2.921 1.31 2.921 2.92v.712Zm5.438 8.954c0 1.61-1.31 2.92-2.921 2.92h-.173V12.168a5.271 5.271 0 0 0-5.265-5.265H7.782v-.711c0-1.611 1.31-2.921 2.921-2.921h24.032c1.61 0 2.921 1.31 2.921 2.92v15.643Z" fill="#FFB800"/><path d="M5.677 24.441H15.99v2.344H5.677v-2.344ZM24.583 24.441h4.302v2.344h-4.302v-2.344Z" fill="#FFB800"/></svg>